<svg xmlns="http://www.w3.org/2000/svg" version="1.1" xmlns:xlink="http://www.w3.org/1999/xlink" xmlns:svgjs="http://svgjs.com/svgjs" width="1440" height="560" preserveAspectRatio="none" viewBox="0 0 1440 560"><g mask="url(&quot;#SvgjsMask1020&quot;)" fill="none"><rect width="1440" height="560" x="0" y="0" fill="rgba(51, 0, 51, 1)"></rect><path d="M-99.6 380.34L-99.6 380.34" stroke="rgba(85, 0, 85, 1)" stroke-width="1.5"></path><path d="M-99.6 380.34L70.59 338.4" stroke="rgba(85, 0, 85, 1)" stroke-width="1.5"></path><path d="M-99.6 380.34L98.56 509.06" stroke="rgba(85, 0, 85, 1)" stroke-width="1.5"></path><path d="M-99.6 380.34L-97.65 655.19" stroke="rgba(85, 0, 85, 1)" stroke-width="1.5"></path><path d="M-99.6 380.34L187.9 356.43" stroke="rgba(85, 0, 85, 1)" stroke-width="1.5"></path><path d="M-97.65 655.19L-97.65 655.19" stroke="rgba(85, 0, 85, 1)" stroke-width="1.5"></path><path d="M-97.65 655.19L90.88 685.04" stroke="rgba(85, 0, 85, 1)" stroke-width="1.5"></path><path d="M70.59 338.4L70.59 338.4" stroke="rgba(85, 0, 85, 1)" stroke-width="1.5"></path><path d="M70.59 338.4L187.9 356.43" stroke="rgba(85, 0, 85, 1)" stroke-width="1.5"></path><path d="M70.59 338.4L98.56 509.06" stroke="rgba(85, 0, 85, 1)" stroke-width="1.5"></path><path d="M98.56 509.06L98.56 509.06" stroke="rgba(85, 0, 85, 1)" stroke-width="1.5"></path><path d="M98.56 509.06L223.31 562.26" stroke="rgba(85, 0, 85, 1)" stroke-width="1.5"></path><path d="M98.56 509.06L90.88 685.04" stroke="rgba(85, 0, 85, 1)" stroke-width="1.5"></path><path d="M98.56 509.06L187.9 356.43" stroke="rgba(85, 0, 85, 1)" stroke-width="1.5"></path><path d="M90.88 685.04L90.88 685.04" stroke="rgba(85, 0, 85, 1)" stroke-width="1.5"></path><path d="M90.88 685.04L197.67 680.63" stroke="rgba(85, 0, 85, 1)" stroke-width="1.5"></path><path d="M187.9 356.43L187.9 356.43" stroke="rgba(85, 0, 85, 1)" stroke-width="1.5"></path><path d="M187.9 356.43L377.47 395.3" stroke="rgba(85, 0, 85, 1)" stroke-width="1.5"></path><path d="M187.9 356.43L223.31 562.26" stroke="rgba(85, 0, 85, 1)" stroke-width="1.5"></path><path d="M187.9 356.43L368.2 492.75" stroke="rgba(85, 0, 85, 1)" stroke-width="1.5"></path><path d="M223.31 562.26L223.31 562.26" stroke="rgba(85, 0, 85, 1)" stroke-width="1.5"></path><path d="M223.31 562.26L197.67 680.63" stroke="rgba(85, 0, 85, 1)" stroke-width="1.5"></path><path d="M223.31 562.26L368.2 492.75" stroke="rgba(85, 0, 85, 1)" stroke-width="1.5"></path><path d="M223.31 562.26L337.54 680.7" stroke="rgba(85, 0, 85, 1)" stroke-width="1.5"></path><path d="M223.31 562.26L90.88 685.04" stroke="rgba(85, 0, 85, 1)" stroke-width="1.5"></path><path d="M197.67 680.63L197.67 680.63" stroke="rgba(85, 0, 85, 1)" stroke-width="1.5"></path><path d="M197.67 680.63L337.54 680.7" stroke="rgba(85, 0, 85, 1)" stroke-width="1.5"></path><path d="M197.67 680.63L98.56 509.06" stroke="rgba(85, 0, 85, 1)" stroke-width="1.5"></path><path d="M197.67 680.63L368.2 492.75" stroke="rgba(85, 0, 85, 1)" stroke-width="1.5"></path><path d="M377.47 395.3L377.47 395.3" stroke="rgba(85, 0, 85, 1)" stroke-width="1.5"></path><path d="M377.47 395.3L368.2 492.75" stroke="rgba(85, 0, 85, 1)" stroke-width="1.5"></path><path d="M377.47 395.3L539.47 397.78" stroke="rgba(85, 0, 85, 1)" stroke-width="1.5"></path><path d="M377.47 395.3L506.31 516.37" stroke="rgba(85, 0, 85, 1)" stroke-width="1.5"></path><path d="M368.2 492.75L368.2 492.75" stroke="rgba(85, 0, 85, 1)" stroke-width="1.5"></path><path d="M368.2 492.75L506.31 516.37" stroke="rgba(85, 0, 85, 1)" stroke-width="1.5"></path><path d="M337.54 680.7L337.54 680.7" stroke="rgba(85, 0, 85, 1)" stroke-width="1.5"></path><path d="M337.54 680.7L518.61 669.91" stroke="rgba(85, 0, 85, 1)" stroke-width="1.5"></path><path d="M337.54 680.7L368.2 492.75" stroke="rgba(85, 0, 85, 1)" stroke-width="1.5"></path><path d="M539.47 397.78L539.47 397.78" stroke="rgba(85, 0, 85, 1)" stroke-width="1.5"></path><path d="M539.47 397.78L506.31 516.37" stroke="rgba(85, 0, 85, 1)" stroke-width="1.5"></path><path d="M539.47 397.78L695.54 396.77" stroke="rgba(85, 0, 85, 1)" stroke-width="1.5"></path><path d="M539.47 397.78L368.2 492.75" stroke="rgba(85, 0, 85, 1)" stroke-width="1.5"></path><path d="M539.47 397.78L669.75 232.16" stroke="rgba(85, 0, 85, 1)" stroke-width="1.5"></path><path d="M539.47 397.78L702.15 545.5" stroke="rgba(85, 0, 85, 1)" stroke-width="1.5"></path><path d="M506.31 516.37L506.31 516.37" stroke="rgba(85, 0, 85, 1)" stroke-width="1.5"></path><path d="M518.61 669.91L518.61 669.91" stroke="rgba(85, 0, 85, 1)" stroke-width="1.5"></path><path d="M518.61 669.91L506.31 516.37" stroke="rgba(85, 0, 85, 1)" stroke-width="1.5"></path><path d="M518.61 669.91L712.14 695.12" stroke="rgba(85, 0, 85, 1)" stroke-width="1.5"></path><path d="M669.75 232.16L669.75 232.16" stroke="rgba(85, 0, 85, 1)" stroke-width="1.5"></path><path d="M669.75 232.16L799.21 253.76" stroke="rgba(85, 0, 85, 1)" stroke-width="1.5"></path><path d="M669.75 232.16L793.84 339.48" stroke="rgba(85, 0, 85, 1)" stroke-width="1.5"></path><path d="M669.75 232.16L695.54 396.77" stroke="rgba(85, 0, 85, 1)" stroke-width="1.5"></path><path d="M695.54 396.77L695.54 396.77" stroke="rgba(85, 0, 85, 1)" stroke-width="1.5"></path><path d="M695.54 396.77L793.84 339.48" stroke="rgba(85, 0, 85, 1)" stroke-width="1.5"></path><path d="M695.54 396.77L702.15 545.5" stroke="rgba(85, 0, 85, 1)" stroke-width="1.5"></path><path d="M702.15 545.5L702.15 545.5" stroke="rgba(85, 0, 85, 1)" stroke-width="1.5"></path><path d="M702.15 545.5L812.82 520.84" stroke="rgba(85, 0, 85, 1)" stroke-width="1.5"></path><path d="M712.14 695.12L712.14 695.12" stroke="rgba(85, 0, 85, 1)" stroke-width="1.5"></path><path d="M712.14 695.12L835.87 662.67" stroke="rgba(85, 0, 85, 1)" stroke-width="1.5"></path><path d="M712.14 695.12L702.15 545.5" stroke="rgba(85, 0, 85, 1)" stroke-width="1.5"></path><path d="M712.14 695.12L812.82 520.84" stroke="rgba(85, 0, 85, 1)" stroke-width="1.5"></path><path d="M712.14 695.12L506.31 516.37" stroke="rgba(85, 0, 85, 1)" stroke-width="1.5"></path><path d="M712.14 695.12L953.03 558.13" stroke="rgba(85, 0, 85, 1)" stroke-width="1.5"></path><path d="M849.49 70.27L849.49 70.27" stroke="rgba(85, 0, 85, 1)" stroke-width="1.5"></path><path d="M849.49 70.27L956.75 60.76" stroke="rgba(85, 0, 85, 1)" stroke-width="1.5"></path><path d="M849.49 70.27L799.21 253.76" stroke="rgba(85, 0, 85, 1)" stroke-width="1.5"></path><path d="M799.21 253.76L799.21 253.76" stroke="rgba(85, 0, 85, 1)" stroke-width="1.5"></path><path d="M799.21 253.76L793.84 339.48" stroke="rgba(85, 0, 85, 1)" stroke-width="1.5"></path><path d="M799.21 253.76L695.54 396.77" stroke="rgba(85, 0, 85, 1)" stroke-width="1.5"></path><path d="M793.84 339.48L793.84 339.48" stroke="rgba(85, 0, 85, 1)" stroke-width="1.5"></path><path d="M793.84 339.48L812.82 520.84" stroke="rgba(85, 0, 85, 1)" stroke-width="1.5"></path><path d="M793.84 339.48L989.54 228.63" stroke="rgba(85, 0, 85, 1)" stroke-width="1.5"></path><path d="M793.84 339.48L702.15 545.5" stroke="rgba(85, 0, 85, 1)" stroke-width="1.5"></path><path d="M812.82 520.84L812.82 520.84" stroke="rgba(85, 0, 85, 1)" stroke-width="1.5"></path><path d="M812.82 520.84L835.87 662.67" stroke="rgba(85, 0, 85, 1)" stroke-width="1.5"></path><path d="M812.82 520.84L953.03 558.13" stroke="rgba(85, 0, 85, 1)" stroke-width="1.5"></path><path d="M812.82 520.84L695.54 396.77" stroke="rgba(85, 0, 85, 1)" stroke-width="1.5"></path><path d="M835.87 662.67L835.87 662.67" stroke="rgba(85, 0, 85, 1)" stroke-width="1.5"></path><path d="M835.87 662.67L953.03 558.13" stroke="rgba(85, 0, 85, 1)" stroke-width="1.5"></path><path d="M835.87 662.67L994.38 697.34" stroke="rgba(85, 0, 85, 1)" stroke-width="1.5"></path><path d="M967.03 -81.12L967.03 -81.12" stroke="rgba(85, 0, 85, 1)" stroke-width="1.5"></path><path d="M967.03 -81.12L956.75 60.76" stroke="rgba(85, 0, 85, 1)" stroke-width="1.5"></path><path d="M967.03 -81.12L1149.12 -55.98" stroke="rgba(85, 0, 85, 1)" stroke-width="1.5"></path><path d="M967.03 -81.12L849.49 70.27" stroke="rgba(85, 0, 85, 1)" stroke-width="1.5"></path><path d="M967.03 -81.12L1140.16 75.09" stroke="rgba(85, 0, 85, 1)" stroke-width="1.5"></path><path d="M967.03 -81.12L1246.81 -86.23" stroke="rgba(85, 0, 85, 1)" stroke-width="1.5"></path><path d="M967.03 -81.12L989.54 228.63" stroke="rgba(85, 0, 85, 1)" stroke-width="1.5"></path><path d="M956.75 60.76L956.75 60.76" stroke="rgba(85, 0, 85, 1)" stroke-width="1.5"></path><path d="M956.75 60.76L989.54 228.63" stroke="rgba(85, 0, 85, 1)" stroke-width="1.5"></path><path d="M956.75 60.76L1140.16 75.09" stroke="rgba(85, 0, 85, 1)" stroke-width="1.5"></path><path d="M989.54 228.63L989.54 228.63" stroke="rgba(85, 0, 85, 1)" stroke-width="1.5"></path><path d="M989.54 228.63L1158.43 194.77" stroke="rgba(85, 0, 85, 1)" stroke-width="1.5"></path><path d="M989.54 228.63L1010.9 405.09" stroke="rgba(85, 0, 85, 1)" stroke-width="1.5"></path><path d="M989.54 228.63L799.21 253.76" stroke="rgba(85, 0, 85, 1)" stroke-width="1.5"></path><path d="M1010.9 405.09L1010.9 405.09" stroke="rgba(85, 0, 85, 1)" stroke-width="1.5"></path><path d="M1010.9 405.09L953.03 558.13" stroke="rgba(85, 0, 85, 1)" stroke-width="1.5"></path><path d="M1010.9 405.09L1122.62 541.92" stroke="rgba(85, 0, 85, 1)" stroke-width="1.5"></path><path d="M953.03 558.13L953.03 558.13" stroke="rgba(85, 0, 85, 1)" stroke-width="1.5"></path><path d="M953.03 558.13L994.38 697.34" stroke="rgba(85, 0, 85, 1)" stroke-width="1.5"></path><path d="M994.38 697.34L994.38 697.34" stroke="rgba(85, 0, 85, 1)" stroke-width="1.5"></path><path d="M994.38 697.34L1099.64 679.58" stroke="rgba(85, 0, 85, 1)" stroke-width="1.5"></path><path d="M1149.12 -55.98L1149.12 -55.98" stroke="rgba(85, 0, 85, 1)" stroke-width="1.5"></path><path d="M1149.12 -55.98L1246.81 -86.23" stroke="rgba(85, 0, 85, 1)" stroke-width="1.5"></path><path d="M1149.12 -55.98L1140.16 75.09" stroke="rgba(85, 0, 85, 1)" stroke-width="1.5"></path><path d="M1149.12 -55.98L1280.82 78.35" stroke="rgba(85, 0, 85, 1)" stroke-width="1.5"></path><path d="M1149.12 -55.98L956.75 60.76" stroke="rgba(85, 0, 85, 1)" stroke-width="1.5"></path><path d="M1140.16 75.09L1140.16 75.09" stroke="rgba(85, 0, 85, 1)" stroke-width="1.5"></path><path d="M1140.16 75.09L1158.43 194.77" stroke="rgba(85, 0, 85, 1)" stroke-width="1.5"></path><path d="M1140.16 75.09L1280.82 78.35" stroke="rgba(85, 0, 85, 1)" stroke-width="1.5"></path><path d="M1158.43 194.77L1158.43 194.77" stroke="rgba(85, 0, 85, 1)" stroke-width="1.5"></path><path d="M1158.43 194.77L1246.47 202.85" stroke="rgba(85, 0, 85, 1)" stroke-width="1.5"></path><path d="M1158.43 194.77L1280.82 78.35" stroke="rgba(85, 0, 85, 1)" stroke-width="1.5"></path><path d="M1158.43 194.77L1281.61 385.34" stroke="rgba(85, 0, 85, 1)" stroke-width="1.5"></path><path d="M1158.43 194.77L956.75 60.76" stroke="rgba(85, 0, 85, 1)" stroke-width="1.5"></path><path d="M1122.62 541.92L1122.62 541.92" stroke="rgba(85, 0, 85, 1)" stroke-width="1.5"></path><path d="M1122.62 541.92L1099.64 679.58" stroke="rgba(85, 0, 85, 1)" stroke-width="1.5"></path><path d="M1122.62 541.92L953.03 558.13" stroke="rgba(85, 0, 85, 1)" stroke-width="1.5"></path><path d="M1099.64 679.58L1099.64 679.58" stroke="rgba(85, 0, 85, 1)" stroke-width="1.5"></path><path d="M1099.64 679.58L1260.94 665.54" stroke="rgba(85, 0, 85, 1)" stroke-width="1.5"></path><path d="M1099.64 679.58L953.03 558.13" stroke="rgba(85, 0, 85, 1)" stroke-width="1.5"></path><path d="M1099.64 679.58L1290.09 509.52" stroke="rgba(85, 0, 85, 1)" stroke-width="1.5"></path><path d="M1246.81 -86.23L1246.81 -86.23" stroke="rgba(85, 0, 85, 1)" stroke-width="1.5"></path><path d="M1246.81 -86.23L1280.82 78.35" stroke="rgba(85, 0, 85, 1)" stroke-width="1.5"></path><path d="M1280.82 78.35L1280.82 78.35" stroke="rgba(85, 0, 85, 1)" stroke-width="1.5"></path><path d="M1280.82 78.35L1246.47 202.85" stroke="rgba(85, 0, 85, 1)" stroke-width="1.5"></path><path d="M1280.82 78.35L1410.69 85.09" stroke="rgba(85, 0, 85, 1)" stroke-width="1.5"></path><path d="M1246.47 202.85L1246.47 202.85" stroke="rgba(85, 0, 85, 1)" stroke-width="1.5"></path><path d="M1246.47 202.85L1140.16 75.09" stroke="rgba(85, 0, 85, 1)" stroke-width="1.5"></path><path d="M1246.47 202.85L1281.61 385.34" stroke="rgba(85, 0, 85, 1)" stroke-width="1.5"></path><path d="M1246.47 202.85L1435.86 251.76" stroke="rgba(85, 0, 85, 1)" stroke-width="1.5"></path><path d="M1246.47 202.85L1410.69 85.09" stroke="rgba(85, 0, 85, 1)" stroke-width="1.5"></path><path d="M1281.61 385.34L1281.61 385.34" stroke="rgba(85, 0, 85, 1)" stroke-width="1.5"></path><path d="M1281.61 385.34L1396.86 384.47" stroke="rgba(85, 0, 85, 1)" stroke-width="1.5"></path><path d="M1281.61 385.34L1290.09 509.52" stroke="rgba(85, 0, 85, 1)" stroke-width="1.5"></path><path d="M1281.61 385.34L1435.86 251.76" stroke="rgba(85, 0, 85, 1)" stroke-width="1.5"></path><path d="M1281.61 385.34L1122.62 541.92" stroke="rgba(85, 0, 85, 1)" stroke-width="1.5"></path><path d="M1290.09 509.52L1290.09 509.52" stroke="rgba(85, 0, 85, 1)" stroke-width="1.5"></path><path d="M1290.09 509.52L1260.94 665.54" stroke="rgba(85, 0, 85, 1)" stroke-width="1.5"></path><path d="M1290.09 509.52L1396.86 384.47" stroke="rgba(85, 0, 85, 1)" stroke-width="1.5"></path><path d="M1290.09 509.52L1122.62 541.92" stroke="rgba(85, 0, 85, 1)" stroke-width="1.5"></path><path d="M1290.09 509.52L1414.09 699.3" stroke="rgba(85, 0, 85, 1)" stroke-width="1.5"></path><path d="M1260.94 665.54L1260.94 665.54" stroke="rgba(85, 0, 85, 1)" stroke-width="1.5"></path><path d="M1260.94 665.54L1414.09 699.3" stroke="rgba(85, 0, 85, 1)" stroke-width="1.5"></path><path d="M1419.75 -101.51L1419.75 -101.51" stroke="rgba(85, 0, 85, 1)" stroke-width="1.5"></path><path d="M1419.75 -101.51L1578.92 -100.27" stroke="rgba(85, 0, 85, 1)" stroke-width="1.5"></path><path d="M1419.75 -101.51L1246.81 -86.23" stroke="rgba(85, 0, 85, 1)" stroke-width="1.5"></path><path d="M1410.69 85.09L1410.69 85.09" stroke="rgba(85, 0, 85, 1)" stroke-width="1.5"></path><path d="M1410.69 85.09L1435.86 251.76" stroke="rgba(85, 0, 85, 1)" stroke-width="1.5"></path><path d="M1410.69 85.09L1538.6 202.56" stroke="rgba(85, 0, 85, 1)" stroke-width="1.5"></path><path d="M1410.69 85.09L1419.75 -101.51" stroke="rgba(85, 0, 85, 1)" stroke-width="1.5"></path><path d="M1435.86 251.76L1435.86 251.76" stroke="rgba(85, 0, 85, 1)" stroke-width="1.5"></path><path d="M1435.86 251.76L1538.6 202.56" stroke="rgba(85, 0, 85, 1)" stroke-width="1.5"></path><path d="M1435.86 251.76L1396.86 384.47" stroke="rgba(85, 0, 85, 1)" stroke-width="1.5"></path><path d="M1435.86 251.76L1601.39 355.61" stroke="rgba(85, 0, 85, 1)" stroke-width="1.5"></path><path d="M1396.86 384.47L1396.86 384.47" stroke="rgba(85, 0, 85, 1)" stroke-width="1.5"></path><path d="M1396.86 384.47L1601.39 355.61" stroke="rgba(85, 0, 85, 1)" stroke-width="1.5"></path><path d="M1396.86 384.47L1538.6 202.56" stroke="rgba(85, 0, 85, 1)" stroke-width="1.5"></path><path d="M1414.09 699.3L1414.09 699.3" stroke="rgba(85, 0, 85, 1)" stroke-width="1.5"></path><path d="M1414.09 699.3L1596.28 560" stroke="rgba(85, 0, 85, 1)" stroke-width="1.5"></path><path d="M1414.09 699.3L1099.64 679.58" stroke="rgba(85, 0, 85, 1)" stroke-width="1.5"></path><path d="M1414.09 699.3L1396.86 384.47" stroke="rgba(85, 0, 85, 1)" stroke-width="1.5"></path><path d="M1578.92 -100.27L1578.92 -100.27" stroke="rgba(85, 0, 85, 1)" stroke-width="1.5"></path><path d="M1578.92 -100.27L1610.45 56.28" stroke="rgba(85, 0, 85, 1)" stroke-width="1.5"></path><path d="M1578.92 -100.27L1410.69 85.09" stroke="rgba(85, 0, 85, 1)" stroke-width="1.5"></path><path d="M1578.92 -100.27L1538.6 202.56" stroke="rgba(85, 0, 85, 1)" stroke-width="1.5"></path><path d="M1610.45 56.28L1610.45 56.28" stroke="rgba(85, 0, 85, 1)" stroke-width="1.5"></path><path d="M1610.45 56.28L1538.6 202.56" stroke="rgba(85, 0, 85, 1)" stroke-width="1.5"></path><path d="M1610.45 56.28L1410.69 85.09" stroke="rgba(85, 0, 85, 1)" stroke-width="1.5"></path><path d="M1538.6 202.56L1538.6 202.56" stroke="rgba(85, 0, 85, 1)" stroke-width="1.5"></path><path d="M1601.39 355.61L1601.39 355.61" stroke="rgba(85, 0, 85, 1)" stroke-width="1.5"></path><path d="M1601.39 355.61L1538.6 202.56" stroke="rgba(85, 0, 85, 1)" stroke-width="1.5"></path><path d="M1601.39 355.61L1596.28 560" stroke="rgba(85, 0, 85, 1)" stroke-width="1.5"></path><path d="M1596.28 560L1596.28 560" stroke="rgba(85, 0, 85, 1)" stroke-width="1.5"></path><circle r="5" cx="-99.6" cy="380.34" fill="rgba(85, 0, 85, 1)"></circle><circle r="5" cx="-97.65" cy="655.19" fill="rgba(85, 0, 85, 1)"></circle><circle r="5" cx="70.59" cy="338.4" fill="rgba(85, 0, 85, 1)"></circle><circle r="5" cx="98.56" cy="509.06" fill="rgba(85, 0, 85, 1)"></circle><circle r="5" cx="90.88" cy="685.04" fill="rgba(85, 0, 85, 1)"></circle><circle r="5" cx="187.9" cy="356.43" fill="rgba(85, 0, 85, 1)"></circle><circle r="5" cx="223.31" cy="562.26" fill="rgba(85, 0, 85, 1)"></circle><circle r="5" cx="197.67" cy="680.63" fill="rgba(85, 0, 85, 1)"></circle><circle r="5" cx="377.47" cy="395.3" fill="rgba(85, 0, 85, 1)"></circle><circle r="5" cx="368.2" cy="492.75" fill="rgba(85, 0, 85, 1)"></circle><circle r="5" cx="337.54" cy="680.7" fill="rgba(85, 0, 85, 1)"></circle><circle r="5" cx="539.47" cy="397.78" fill="rgba(85, 0, 85, 1)"></circle><circle r="5" cx="506.31" cy="516.37" fill="rgba(85, 0, 85, 1)"></circle><circle r="5" cx="518.61" cy="669.91" fill="rgba(85, 0, 85, 1)"></circle><circle r="5" cx="669.75" cy="232.16" fill="rgba(85, 0, 85, 1)"></circle><circle r="5" cx="695.54" cy="396.77" fill="rgba(85, 0, 85, 1)"></circle><circle r="5" cx="702.15" cy="545.5" fill="rgba(85, 0, 85, 1)"></circle><circle r="5" cx="712.14" cy="695.12" fill="rgba(85, 0, 85, 1)"></circle><circle r="5" cx="849.49" cy="70.27" fill="rgba(85, 0, 85, 1)"></circle><circle r="5" cx="799.21" cy="253.76" fill="rgba(85, 0, 85, 1)"></circle><circle r="5" cx="793.84" cy="339.48" fill="rgba(85, 0, 85, 1)"></circle><circle r="5" cx="812.82" cy="520.84" fill="rgba(85, 0, 85, 1)"></circle><circle r="5" cx="835.87" cy="662.67" fill="rgba(85, 0, 85, 1)"></circle><circle r="5" cx="967.03" cy="-81.12" fill="rgba(85, 0, 85, 1)"></circle><circle r="5" cx="956.75" cy="60.76" fill="rgba(85, 0, 85, 1)"></circle><circle r="5" cx="989.54" cy="228.63" fill="rgba(85, 0, 85, 1)"></circle><circle r="5" cx="1010.9" cy="405.09" fill="rgba(85, 0, 85, 1)"></circle><circle r="5" cx="953.03" cy="558.13" fill="rgba(85, 0, 85, 1)"></circle><circle r="5" cx="994.38" cy="697.34" fill="rgba(85, 0, 85, 1)"></circle><circle r="5" cx="1149.12" cy="-55.98" fill="rgba(85, 0, 85, 1)"></circle><circle r="5" cx="1140.16" cy="75.09" fill="rgba(85, 0, 85, 1)"></circle><circle r="5" cx="1158.43" cy="194.77" fill="rgba(85, 0, 85, 1)"></circle><circle r="5" cx="1122.62" cy="541.92" fill="rgba(85, 0, 85, 1)"></circle><circle r="5" cx="1099.64" cy="679.58" fill="rgba(85, 0, 85, 1)"></circle><circle r="5" cx="1246.81" cy="-86.23" fill="rgba(85, 0, 85, 1)"></circle><circle r="5" cx="1280.82" cy="78.35" fill="rgba(85, 0, 85, 1)"></circle><circle r="5" cx="1246.47" cy="202.85" fill="rgba(85, 0, 85, 1)"></circle><circle r="5" cx="1281.61" cy="385.34" fill="rgba(85, 0, 85, 1)"></circle><circle r="5" cx="1290.09" cy="509.52" fill="rgba(85, 0, 85, 1)"></circle><circle r="5" cx="1260.94" cy="665.54" fill="rgba(85, 0, 85, 1)"></circle><circle r="5" cx="1419.75" cy="-101.51" fill="rgba(85, 0, 85, 1)"></circle><circle r="5" cx="1410.69" cy="85.09" fill="rgba(85, 0, 85, 1)"></circle><circle r="5" cx="1435.86" cy="251.76" fill="rgba(85, 0, 85, 1)"></circle><circle r="5" cx="1396.86" cy="384.47" fill="rgba(85, 0, 85, 1)"></circle><circle r="5" cx="1414.09" cy="699.3" fill="rgba(85, 0, 85, 1)"></circle><circle r="5" cx="1578.92" cy="-100.27" fill="rgba(85, 0, 85, 1)"></circle><circle r="5" cx="1610.45" cy="56.28" fill="rgba(85, 0, 85, 1)"></circle><circle r="5" cx="1538.6" cy="202.56" fill="rgba(85, 0, 85, 1)"></circle><circle r="5" cx="1601.39" cy="355.61" fill="rgba(85, 0, 85, 1)"></circle><circle r="5" cx="1596.28" cy="560" fill="rgba(85, 0, 85, 1)"></circle><path d="M-107.07 525.43L-107.07 525.43" stroke="hsl(300, 100%, 17.3%)" stroke-width="1.5"></path><path d="M-107.07 525.43L-62.79 670.82" stroke="hsl(300, 100%, 17.3%)" stroke-width="1.5"></path><path d="M-107.07 525.43L46.3 554.29" stroke="hsl(300, 100%, 17.3%)" stroke-width="1.5"></path><path d="M-107.07 525.43L104.36 705.08" stroke="hsl(300, 100%, 17.3%)" stroke-width="1.5"></path><path d="M-107.07 525.43L226.65 499.14" stroke="hsl(300, 100%, 17.3%)" stroke-width="1.5"></path><path d="M-107.07 525.43L218.5 649.41" stroke="hsl(300, 100%, 17.3%)" stroke-width="1.5"></path><path d="M226.65 499.14L226.65 499.14" stroke="hsl(300, 100%, 17.3%)" stroke-width="1.5"></path><path d="M226.65 499.14L345.85 512.76" stroke="hsl(300, 100%, 17.3%)" stroke-width="1.5"></path><path d="M226.65 499.14L218.5 649.41" stroke="hsl(300, 100%, 17.3%)" stroke-width="1.5"></path><path d="M226.65 499.14L46.3 554.29" stroke="hsl(300, 100%, 17.3%)" stroke-width="1.5"></path><path d="M226.65 499.14L104.36 705.08" stroke="hsl(300, 100%, 17.3%)" stroke-width="1.5"></path><path d="M697.67 528.59L697.67 528.59" stroke="hsl(300, 100%, 17.3%)" stroke-width="1.5"></path><path d="M697.67 528.59L807.01 520.19" stroke="hsl(300, 100%, 17.3%)" stroke-width="1.5"></path><path d="M641.63 669.89L641.63 669.89" stroke="hsl(300, 100%, 17.3%)" stroke-width="1.5"></path><path d="M641.63 669.89L508.45 652.82" stroke="hsl(300, 100%, 17.3%)" stroke-width="1.5"></path><path d="M641.63 669.89L697.67 528.59" stroke="hsl(300, 100%, 17.3%)" stroke-width="1.5"></path><path d="M641.63 669.89L845.96 655.32" stroke="hsl(300, 100%, 17.3%)" stroke-width="1.5"></path><path d="M807.01 520.19L807.01 520.19" stroke="hsl(300, 100%, 17.3%)" stroke-width="1.5"></path><path d="M807.01 520.19L845.96 655.32" stroke="hsl(300, 100%, 17.3%)" stroke-width="1.5"></path><path d="M807.01 520.19L641.63 669.89" stroke="hsl(300, 100%, 17.3%)" stroke-width="1.5"></path><path d="M807.01 520.19L953.53 711.4" stroke="hsl(300, 100%, 17.3%)" stroke-width="1.5"></path><path d="M1012.36 368.11L1012.36 368.11" stroke="hsl(300, 100%, 17.3%)" stroke-width="1.5"></path><path d="M1012.36 368.11L1136.9 369.42" stroke="hsl(300, 100%, 17.3%)" stroke-width="1.5"></path><path d="M1012.36 368.11L1147.97 250.64" stroke="hsl(300, 100%, 17.3%)" stroke-width="1.5"></path><path d="M1147.97 250.64L1147.97 250.64" stroke="hsl(300, 100%, 17.3%)" stroke-width="1.5"></path><path d="M1147.97 250.64L1136.9 369.42" stroke="hsl(300, 100%, 17.3%)" stroke-width="1.5"></path><path d="M1147.97 250.64L1292.44 196.12" stroke="hsl(300, 100%, 17.3%)" stroke-width="1.5"></path><path d="M1147.97 250.64L1251.81 388.9" stroke="hsl(300, 100%, 17.3%)" stroke-width="1.5"></path><path d="M1147.97 250.64L1238.15 65.97" stroke="hsl(300, 100%, 17.3%)" stroke-width="1.5"></path><path d="M1136.9 369.42L1136.9 369.42" stroke="hsl(300, 100%, 17.3%)" stroke-width="1.5"></path><path d="M1136.9 369.42L1251.81 388.9" stroke="hsl(300, 100%, 17.3%)" stroke-width="1.5"></path><path d="M1136.9 369.42L1115.63 550.19" stroke="hsl(300, 100%, 17.3%)" stroke-width="1.5"></path><path d="M1136.9 369.42L1264.24 509.58" stroke="hsl(300, 100%, 17.3%)" stroke-width="1.5"></path><path d="M1136.9 369.42L1292.44 196.12" stroke="hsl(300, 100%, 17.3%)" stroke-width="1.5"></path><path d="M1609.9 -79.4L1609.9 -79.4" stroke="hsl(300, 100%, 17.3%)" stroke-width="1.5"></path><path d="M1609.9 -79.4L1545.75 112.44" stroke="hsl(300, 100%, 17.3%)" stroke-width="1.5"></path><path d="M1609.9 -79.4L1579.07 258.4" stroke="hsl(300, 100%, 17.3%)" stroke-width="1.5"></path><path d="M1609.9 -79.4L1396.1 212.34" stroke="hsl(300, 100%, 17.3%)" stroke-width="1.5"></path><path d="M1579.07 258.4L1579.07 258.4" stroke="hsl(300, 100%, 17.3%)" stroke-width="1.5"></path><path d="M1579.07 258.4L1559 404.81" stroke="hsl(300, 100%, 17.3%)" stroke-width="1.5"></path><path d="M1579.07 258.4L1545.75 112.44" stroke="hsl(300, 100%, 17.3%)" stroke-width="1.5"></path><path d="M-62.79 670.82L-62.79 670.82" stroke="hsl(300, 100%, 17.3%)" stroke-width="1.5"></path><path d="M-62.79 670.82L46.3 554.29" stroke="hsl(300, 100%, 17.3%)" stroke-width="1.5"></path><path d="M-62.79 670.82L104.36 705.08" stroke="hsl(300, 100%, 17.3%)" stroke-width="1.5"></path><path d="M-62.79 670.82L218.5 649.41" stroke="hsl(300, 100%, 17.3%)" stroke-width="1.5"></path><path d="M-62.79 670.82L226.65 499.14" stroke="hsl(300, 100%, 17.3%)" stroke-width="1.5"></path><path d="M46.3 554.29L46.3 554.29" stroke="hsl(300, 100%, 17.3%)" stroke-width="1.5"></path><path d="M104.36 705.08L104.36 705.08" stroke="hsl(300, 100%, 17.3%)" stroke-width="1.5"></path><path d="M104.36 705.08L218.5 649.41" stroke="hsl(300, 100%, 17.3%)" stroke-width="1.5"></path><path d="M104.36 705.08L46.3 554.29" stroke="hsl(300, 100%, 17.3%)" stroke-width="1.5"></path><path d="M218.5 649.41L218.5 649.41" stroke="hsl(300, 100%, 17.3%)" stroke-width="1.5"></path><path d="M218.5 649.41L395.9 683.39" stroke="hsl(300, 100%, 17.3%)" stroke-width="1.5"></path><path d="M218.5 649.41L345.85 512.76" stroke="hsl(300, 100%, 17.3%)" stroke-width="1.5"></path><path d="M345.85 512.76L345.85 512.76" stroke="hsl(300, 100%, 17.3%)" stroke-width="1.5"></path><path d="M345.85 512.76L395.9 683.39" stroke="hsl(300, 100%, 17.3%)" stroke-width="1.5"></path><path d="M345.85 512.76L508.45 652.82" stroke="hsl(300, 100%, 17.3%)" stroke-width="1.5"></path><path d="M345.85 512.76L548.16 405.61" stroke="hsl(300, 100%, 17.3%)" stroke-width="1.5"></path><path d="M345.85 512.76L46.3 554.29" stroke="hsl(300, 100%, 17.3%)" stroke-width="1.5"></path><path d="M395.9 683.39L395.9 683.39" stroke="hsl(300, 100%, 17.3%)" stroke-width="1.5"></path><path d="M395.9 683.39L508.45 652.82" stroke="hsl(300, 100%, 17.3%)" stroke-width="1.5"></path><path d="M548.16 405.61L548.16 405.61" stroke="hsl(300, 100%, 17.3%)" stroke-width="1.5"></path><path d="M548.16 405.61L697.67 528.59" stroke="hsl(300, 100%, 17.3%)" stroke-width="1.5"></path><path d="M548.16 405.61L508.45 652.82" stroke="hsl(300, 100%, 17.3%)" stroke-width="1.5"></path><path d="M548.16 405.61L641.63 669.89" stroke="hsl(300, 100%, 17.3%)" stroke-width="1.5"></path><path d="M548.16 405.61L807.01 520.19" stroke="hsl(300, 100%, 17.3%)" stroke-width="1.5"></path><path d="M548.16 405.61L395.9 683.39" stroke="hsl(300, 100%, 17.3%)" stroke-width="1.5"></path><path d="M508.45 652.82L508.45 652.82" stroke="hsl(300, 100%, 17.3%)" stroke-width="1.5"></path><path d="M508.45 652.82L697.67 528.59" stroke="hsl(300, 100%, 17.3%)" stroke-width="1.5"></path><path d="M845.96 655.32L845.96 655.32" stroke="hsl(300, 100%, 17.3%)" stroke-width="1.5"></path><path d="M845.96 655.32L953.53 711.4" stroke="hsl(300, 100%, 17.3%)" stroke-width="1.5"></path><path d="M845.96 655.32L697.67 528.59" stroke="hsl(300, 100%, 17.3%)" stroke-width="1.5"></path><path d="M845.96 655.32L1126.54 674.89" stroke="hsl(300, 100%, 17.3%)" stroke-width="1.5"></path><path d="M953.53 711.4L953.53 711.4" stroke="hsl(300, 100%, 17.3%)" stroke-width="1.5"></path><path d="M953.53 711.4L1126.54 674.89" stroke="hsl(300, 100%, 17.3%)" stroke-width="1.5"></path><path d="M953.53 711.4L1115.63 550.19" stroke="hsl(300, 100%, 17.3%)" stroke-width="1.5"></path><path d="M1160.13 -70.84L1160.13 -70.84" stroke="hsl(300, 100%, 17.3%)" stroke-width="1.5"></path><path d="M1160.13 -70.84L1239.81 -80.42" stroke="hsl(300, 100%, 17.3%)" stroke-width="1.5"></path><path d="M1160.13 -70.84L1238.15 65.97" stroke="hsl(300, 100%, 17.3%)" stroke-width="1.5"></path><path d="M1160.13 -70.84L1292.44 196.12" stroke="hsl(300, 100%, 17.3%)" stroke-width="1.5"></path><path d="M1160.13 -70.84L1147.97 250.64" stroke="hsl(300, 100%, 17.3%)" stroke-width="1.5"></path><path d="M1115.63 550.19L1115.63 550.19" stroke="hsl(300, 100%, 17.3%)" stroke-width="1.5"></path><path d="M1115.63 550.19L1126.54 674.89" stroke="hsl(300, 100%, 17.3%)" stroke-width="1.5"></path><path d="M1115.63 550.19L1264.24 509.58" stroke="hsl(300, 100%, 17.3%)" stroke-width="1.5"></path><path d="M1115.63 550.19L1012.36 368.11" stroke="hsl(300, 100%, 17.3%)" stroke-width="1.5"></path><path d="M1115.63 550.19L1251.81 388.9" stroke="hsl(300, 100%, 17.3%)" stroke-width="1.5"></path><path d="M1126.54 674.89L1126.54 674.89" stroke="hsl(300, 100%, 17.3%)" stroke-width="1.5"></path><path d="M1126.54 674.89L1293.63 685.24" stroke="hsl(300, 100%, 17.3%)" stroke-width="1.5"></path><path d="M1126.54 674.89L1264.24 509.58" stroke="hsl(300, 100%, 17.3%)" stroke-width="1.5"></path><path d="M1239.81 -80.42L1239.81 -80.42" stroke="hsl(300, 100%, 17.3%)" stroke-width="1.5"></path><path d="M1239.81 -80.42L1238.15 65.97" stroke="hsl(300, 100%, 17.3%)" stroke-width="1.5"></path><path d="M1239.81 -80.42L1292.44 196.12" stroke="hsl(300, 100%, 17.3%)" stroke-width="1.5"></path><path d="M1239.81 -80.42L1396.1 212.34" stroke="hsl(300, 100%, 17.3%)" stroke-width="1.5"></path><path d="M1239.81 -80.42L1147.97 250.64" stroke="hsl(300, 100%, 17.3%)" stroke-width="1.5"></path><path d="M1239.81 -80.42L1545.75 112.44" stroke="hsl(300, 100%, 17.3%)" stroke-width="1.5"></path><path d="M1238.15 65.97L1238.15 65.97" stroke="hsl(300, 100%, 17.3%)" stroke-width="1.5"></path><path d="M1238.15 65.97L1292.44 196.12" stroke="hsl(300, 100%, 17.3%)" stroke-width="1.5"></path><path d="M1292.44 196.12L1292.44 196.12" stroke="hsl(300, 100%, 17.3%)" stroke-width="1.5"></path><path d="M1292.44 196.12L1396.1 212.34" stroke="hsl(300, 100%, 17.3%)" stroke-width="1.5"></path><path d="M1292.44 196.12L1251.81 388.9" stroke="hsl(300, 100%, 17.3%)" stroke-width="1.5"></path><path d="M1251.81 388.9L1251.81 388.9" stroke="hsl(300, 100%, 17.3%)" stroke-width="1.5"></path><path d="M1251.81 388.9L1264.24 509.58" stroke="hsl(300, 100%, 17.3%)" stroke-width="1.5"></path><path d="M1251.81 388.9L1396.38 503.28" stroke="hsl(300, 100%, 17.3%)" stroke-width="1.5"></path><path d="M1264.24 509.58L1264.24 509.58" stroke="hsl(300, 100%, 17.3%)" stroke-width="1.5"></path><path d="M1264.24 509.58L1396.38 503.28" stroke="hsl(300, 100%, 17.3%)" stroke-width="1.5"></path><path d="M1264.24 509.58L1293.63 685.24" stroke="hsl(300, 100%, 17.3%)" stroke-width="1.5"></path><path d="M1293.63 685.24L1293.63 685.24" stroke="hsl(300, 100%, 17.3%)" stroke-width="1.5"></path><path d="M1293.63 685.24L1409.35 652.49" stroke="hsl(300, 100%, 17.3%)" stroke-width="1.5"></path><path d="M1293.63 685.24L1396.38 503.28" stroke="hsl(300, 100%, 17.3%)" stroke-width="1.5"></path><path d="M1293.63 685.24L1115.63 550.19" stroke="hsl(300, 100%, 17.3%)" stroke-width="1.5"></path><path d="M1396.1 212.34L1396.1 212.34" stroke="hsl(300, 100%, 17.3%)" stroke-width="1.5"></path><path d="M1396.1 212.34L1545.75 112.44" stroke="hsl(300, 100%, 17.3%)" stroke-width="1.5"></path><path d="M1396.1 212.34L1579.07 258.4" stroke="hsl(300, 100%, 17.3%)" stroke-width="1.5"></path><path d="M1396.1 212.34L1238.15 65.97" stroke="hsl(300, 100%, 17.3%)" stroke-width="1.5"></path><path d="M1396.1 212.34L1251.81 388.9" stroke="hsl(300, 100%, 17.3%)" stroke-width="1.5"></path><path d="M1396.1 212.34L1147.97 250.64" stroke="hsl(300, 100%, 17.3%)" stroke-width="1.5"></path><path d="M1396.38 503.28L1396.38 503.28" stroke="hsl(300, 100%, 17.3%)" stroke-width="1.5"></path><path d="M1396.38 503.28L1409.35 652.49" stroke="hsl(300, 100%, 17.3%)" stroke-width="1.5"></path><path d="M1396.38 503.28L1577.14 515.19" stroke="hsl(300, 100%, 17.3%)" stroke-width="1.5"></path><path d="M1396.38 503.28L1559 404.81" stroke="hsl(300, 100%, 17.3%)" stroke-width="1.5"></path><path d="M1409.35 652.49L1409.35 652.49" stroke="hsl(300, 100%, 17.3%)" stroke-width="1.5"></path><path d="M1409.35 652.49L1558.06 712" stroke="hsl(300, 100%, 17.3%)" stroke-width="1.5"></path><path d="M1545.75 112.44L1545.75 112.44" stroke="hsl(300, 100%, 17.3%)" stroke-width="1.5"></path><path d="M1559 404.81L1559 404.81" stroke="hsl(300, 100%, 17.3%)" stroke-width="1.5"></path><path d="M1559 404.81L1577.14 515.19" stroke="hsl(300, 100%, 17.3%)" stroke-width="1.5"></path><path d="M1577.14 515.19L1577.14 515.19" stroke="hsl(300, 100%, 17.3%)" stroke-width="1.5"></path><path d="M1577.14 515.19L1558.06 712" stroke="hsl(300, 100%, 17.3%)" stroke-width="1.5"></path><path d="M1577.14 515.19L1409.35 652.49" stroke="hsl(300, 100%, 17.3%)" stroke-width="1.5"></path><path d="M1577.14 515.19L1579.07 258.4" stroke="hsl(300, 100%, 17.3%)" stroke-width="1.5"></path><path d="M1577.14 515.19L1264.24 509.58" stroke="hsl(300, 100%, 17.3%)" stroke-width="1.5"></path><path d="M1558.06 712L1558.06 712" stroke="hsl(300, 100%, 17.3%)" stroke-width="1.5"></path><path d="M1558.06 712L1396.38 503.28" stroke="hsl(300, 100%, 17.3%)" stroke-width="1.5"></path><path d="M1558.06 712L1293.63 685.24" stroke="hsl(300, 100%, 17.3%)" stroke-width="1.5"></path><path d="M1558.06 712L1559 404.81" stroke="hsl(300, 100%, 17.3%)" stroke-width="1.5"></path><path d="M1558.06 712L1264.24 509.58" stroke="hsl(300, 100%, 17.3%)" stroke-width="1.5"></path><circle r="25" cx="-107.07" cy="525.43" fill="url(#SvgjsRadialGradient1021)"></circle><circle r="25" cx="226.65" cy="499.14" fill="url(#SvgjsRadialGradient1021)"></circle><circle r="25" cx="697.67" cy="528.59" fill="url(#SvgjsRadialGradient1021)"></circle><circle r="25" cx="641.63" cy="669.89" fill="url(#SvgjsRadialGradient1021)"></circle><circle r="25" cx="807.01" cy="520.19" fill="url(#SvgjsRadialGradient1021)"></circle><circle r="25" cx="1012.36" cy="368.11" fill="url(#SvgjsRadialGradient1021)"></circle><circle r="25" cx="1147.97" cy="250.64" fill="url(#SvgjsRadialGradient1021)"></circle><circle r="25" cx="1136.9" cy="369.42" fill="url(#SvgjsRadialGradient1021)"></circle><circle r="25" cx="1609.9" cy="-79.4" fill="url(#SvgjsRadialGradient1021)"></circle><circle r="25" cx="1579.07" cy="258.4" fill="url(#SvgjsRadialGradient1021)"></circle><circle r="5" cx="-62.79" cy="670.82" fill="#a280a2"></circle><circle r="5" cx="46.3" cy="554.29" fill="#a280a2"></circle><circle r="5" cx="104.36" cy="705.08" fill="#a280a2"></circle><circle r="5" cx="218.5" cy="649.41" fill="#a280a2"></circle><circle r="5" cx="345.85" cy="512.76" fill="#a280a2"></circle><circle r="5" cx="395.9" cy="683.39" fill="#a280a2"></circle><circle r="5" cx="548.16" cy="405.61" fill="#a280a2"></circle><circle r="5" cx="508.45" cy="652.82" fill="#a280a2"></circle><circle r="5" cx="845.96" cy="655.32" fill="#a280a2"></circle><circle r="5" cx="953.53" cy="711.4" fill="#a280a2"></circle><circle r="5" cx="1160.13" cy="-70.84" fill="#a280a2"></circle><circle r="5" cx="1115.63" cy="550.19" fill="#a280a2"></circle><circle r="5" cx="1126.54" cy="674.89" fill="#a280a2"></circle><circle r="5" cx="1239.81" cy="-80.42" fill="#a280a2"></circle><circle r="5" cx="1238.15" cy="65.97" fill="#a280a2"></circle><circle r="5" cx="1292.44" cy="196.12" fill="#a280a2"></circle><circle r="5" cx="1251.81" cy="388.9" fill="#a280a2"></circle><circle r="5" cx="1264.24" cy="509.58" fill="#a280a2"></circle><circle r="5" cx="1293.63" cy="685.24" fill="#a280a2"></circle><circle r="5" cx="1396.1" cy="212.34" fill="#a280a2"></circle><circle r="5" cx="1396.38" cy="503.28" fill="#a280a2"></circle><circle r="5" cx="1409.35" cy="652.49" fill="#a280a2"></circle><circle r="5" cx="1545.75" cy="112.44" fill="#a280a2"></circle><circle r="5" cx="1559" cy="404.81" fill="#a280a2"></circle><circle r="5" cx="1577.14" cy="515.19" fill="#a280a2"></circle><circle r="5" cx="1558.06" cy="712" fill="#a280a2"></circle></g><defs><mask id="SvgjsMask1020"><rect width="1440" height="560" fill="#ffffff"></rect></mask><radialGradient id="SvgjsRadialGradient1021"><stop stop-color="#ffffff" offset="0.1"></stop><stop stop-color="rgba(68, 0, 68, 1)" offset="0.2"></stop><stop stop-color="rgba(68, 0, 68, 0)" offset="1"></stop></radialGradient></defs></svg>