<svg xmlns="http://www.w3.org/2000/svg" version="1.1" xmlns:xlink="http://www.w3.org/1999/xlink" xmlns:svgjs="http://svgjs.com/svgjs" width="1440" height="560" preserveAspectRatio="none" viewBox="0 0 1440 560"><g mask="url(&quot;#SvgjsMask1000&quot;)" fill="none"><rect width="1440" height="560" x="0" y="0" fill="rgba(51, 0, 51, 1)"></rect><path d="M 0,149 C 41.2,124.8 123.6,9.2 206,28 C 288.4,46.8 329.6,225.4 412,243 C 494.4,260.6 535.6,135.4 618,116 C 700.4,96.6 741.6,153.2 824,146 C 906.4,138.8 947.6,55.8 1030,80 C 1112.4,104.2 1154,276 1236,267 C 1318,258 1399.2,81.4 1440,35L1440 560L0 560z" fill="rgba(85, 0, 85, 1)"></path><path d="M 0,291 C 20.6,317.6 61.8,420.2 103,424 C 144.2,427.8 164.8,308 206,310 C 247.2,312 267.8,425.2 309,434 C 350.2,442.8 370.8,355 412,354 C 453.2,353 473.8,436.6 515,429 C 556.2,421.4 576.8,300 618,316 C 659.2,332 679.8,514.4 721,509 C 762.2,503.6 782.8,292.6 824,289 C 865.2,285.4 885.8,482.8 927,491 C 968.2,499.2 988.8,339 1030,330 C 1071.2,321 1091.8,448.8 1133,446 C 1174.2,443.2 1194.8,314.8 1236,316 C 1277.2,317.2 1298.2,449.8 1339,452 C 1379.8,454.2 1419.8,352 1440,327L1440 560L0 560z" fill="rgba(68, 0, 68, 1)"></path></g><defs><mask id="SvgjsMask1000"><rect width="1440" height="560" fill="#ffffff"></rect></mask></defs></svg>